<mxfile host="app.diagrams.net" agent="Mozilla/5.0 (Windows NT 10.0; Win64; x64) AppleWebKit/537.36 (KHTML, like Gecko) Chrome/131.0.0.0 Safari/537.36" version="26.0.2">
  <diagram name="Page-1" id="yv-5_k88PXAZzWlburbE">
    <mxGraphModel dx="2868" dy="1498" grid="1" gridSize="10" guides="1" tooltips="1" connect="1" arrows="1" fold="1" page="1" pageScale="1" pageWidth="3950" pageHeight="5100" math="0" shadow="0">
      <root>
        <mxCell id="0" />
        <mxCell id="1" parent="0" />
        <mxCell id="BUxdm4yUOxi0sFAAeVJM-24" value="" style="rounded=0;whiteSpace=wrap;html=1;" vertex="1" parent="1">
          <mxGeometry x="1190" y="3910" width="1280" height="1880" as="geometry" />
        </mxCell>
        <mxCell id="BUxdm4yUOxi0sFAAeVJM-5" value="&lt;div style=&quot;line-height: 190%;&quot;&gt;&lt;font style=&quot;font-size: 33px;&quot;&gt;Customer&lt;/font&gt;&lt;div&gt;&lt;/div&gt;&lt;/div&gt;" style="shape=umlActor;verticalLabelPosition=bottom;verticalAlign=top;html=1;outlineConnect=0;" vertex="1" parent="1">
          <mxGeometry x="940" y="4710" width="150" height="210" as="geometry" />
        </mxCell>
        <mxCell id="BUxdm4yUOxi0sFAAeVJM-18" value="&lt;font style=&quot;font-size: 32px;&quot;&gt;View products&lt;/font&gt;" style="rounded=1;whiteSpace=wrap;html=1;" vertex="1" parent="1">
          <mxGeometry x="1330" y="4600" width="170" height="90" as="geometry" />
        </mxCell>
        <mxCell id="BUxdm4yUOxi0sFAAeVJM-56" value="&lt;div style=&quot;line-height: 190%;&quot;&gt;&lt;font style=&quot;font-size: 33px;&quot;&gt;Administrator&lt;/font&gt;&lt;/div&gt;" style="shape=umlActor;verticalLabelPosition=bottom;verticalAlign=top;html=1;outlineConnect=0;" vertex="1" parent="1">
          <mxGeometry x="2610" y="4690" width="150" height="210" as="geometry" />
        </mxCell>
        <mxCell id="BUxdm4yUOxi0sFAAeVJM-57" value="&lt;font style=&quot;font-size: 32px;&quot;&gt;Login&lt;/font&gt;" style="rounded=1;whiteSpace=wrap;html=1;" vertex="1" parent="1">
          <mxGeometry x="1350" y="4280" width="150" height="60" as="geometry" />
        </mxCell>
        <mxCell id="BUxdm4yUOxi0sFAAeVJM-61" value="" style="endArrow=none;html=1;rounded=0;entryX=0;entryY=1;entryDx=0;entryDy=0;" edge="1" parent="1" target="BUxdm4yUOxi0sFAAeVJM-57">
          <mxGeometry width="50" height="50" relative="1" as="geometry">
            <mxPoint x="1110" y="4750" as="sourcePoint" />
            <mxPoint x="1160" y="4700" as="targetPoint" />
          </mxGeometry>
        </mxCell>
        <mxCell id="BUxdm4yUOxi0sFAAeVJM-62" value="" style="endArrow=none;html=1;rounded=0;entryX=0.5;entryY=1;entryDx=0;entryDy=0;" edge="1" parent="1" target="BUxdm4yUOxi0sFAAeVJM-18">
          <mxGeometry width="50" height="50" relative="1" as="geometry">
            <mxPoint x="1110" y="4750" as="sourcePoint" />
            <mxPoint x="1180" y="4770" as="targetPoint" />
          </mxGeometry>
        </mxCell>
        <mxCell id="BUxdm4yUOxi0sFAAeVJM-64" value="" style="endArrow=none;html=1;rounded=0;exitX=1;exitY=0;exitDx=0;exitDy=0;entryX=0.25;entryY=1;entryDx=0;entryDy=0;" edge="1" parent="1" source="BUxdm4yUOxi0sFAAeVJM-57" target="BUxdm4yUOxi0sFAAeVJM-65">
          <mxGeometry width="50" height="50" relative="1" as="geometry">
            <mxPoint x="1620" y="4330" as="sourcePoint" />
            <mxPoint x="1670" y="4280" as="targetPoint" />
          </mxGeometry>
        </mxCell>
        <mxCell id="BUxdm4yUOxi0sFAAeVJM-65" value="&lt;font style=&quot;font-size: 32px;&quot;&gt;Access Website&lt;/font&gt;" style="rounded=1;whiteSpace=wrap;html=1;" vertex="1" parent="1">
          <mxGeometry x="1580" y="4020" width="180" height="100" as="geometry" />
        </mxCell>
        <mxCell id="BUxdm4yUOxi0sFAAeVJM-66" value="&lt;span style=&quot;font-size: 32px;&quot;&gt;Login error&lt;/span&gt;" style="rounded=1;whiteSpace=wrap;html=1;" vertex="1" parent="1">
          <mxGeometry x="1610" y="4300" width="260" height="50" as="geometry" />
        </mxCell>
        <mxCell id="BUxdm4yUOxi0sFAAeVJM-67" value="" style="endArrow=none;html=1;rounded=0;entryX=0;entryY=0.5;entryDx=0;entryDy=0;exitX=1;exitY=0.75;exitDx=0;exitDy=0;" edge="1" parent="1" source="BUxdm4yUOxi0sFAAeVJM-57" target="BUxdm4yUOxi0sFAAeVJM-66">
          <mxGeometry width="50" height="50" relative="1" as="geometry">
            <mxPoint x="1520" y="4400" as="sourcePoint" />
            <mxPoint x="1580" y="4350" as="targetPoint" />
          </mxGeometry>
        </mxCell>
        <mxCell id="BUxdm4yUOxi0sFAAeVJM-68" value="" style="endArrow=none;html=1;rounded=0;exitX=1;exitY=0.5;exitDx=0;exitDy=0;" edge="1" parent="1" source="BUxdm4yUOxi0sFAAeVJM-69">
          <mxGeometry width="50" height="50" relative="1" as="geometry">
            <mxPoint x="2550" y="4850" as="sourcePoint" />
            <mxPoint x="2600" y="4800" as="targetPoint" />
          </mxGeometry>
        </mxCell>
        <mxCell id="BUxdm4yUOxi0sFAAeVJM-69" value="&lt;span style=&quot;font-size: 32px;&quot;&gt;Manage users&lt;/span&gt;" style="rounded=1;whiteSpace=wrap;html=1;" vertex="1" parent="1">
          <mxGeometry x="2100" y="4750" width="260" height="50" as="geometry" />
        </mxCell>
        <mxCell id="BUxdm4yUOxi0sFAAeVJM-70" value="" style="endArrow=none;html=1;rounded=0;exitX=1;exitY=0.5;exitDx=0;exitDy=0;" edge="1" parent="1" source="BUxdm4yUOxi0sFAAeVJM-71">
          <mxGeometry width="50" height="50" relative="1" as="geometry">
            <mxPoint x="2530" y="4910" as="sourcePoint" />
            <mxPoint x="2600" y="4800" as="targetPoint" />
          </mxGeometry>
        </mxCell>
        <mxCell id="BUxdm4yUOxi0sFAAeVJM-71" value="&lt;span style=&quot;font-size: 32px;&quot;&gt;Manage users&lt;/span&gt;" style="rounded=1;whiteSpace=wrap;html=1;" vertex="1" parent="1">
          <mxGeometry x="2110" y="4910" width="260" height="50" as="geometry" />
        </mxCell>
        <mxCell id="BUxdm4yUOxi0sFAAeVJM-72" value="&lt;span style=&quot;font-size: 32px;&quot;&gt;Revenue tracking&lt;/span&gt;" style="rounded=1;whiteSpace=wrap;html=1;" vertex="1" parent="1">
          <mxGeometry x="2100" y="4600" width="260" height="50" as="geometry" />
        </mxCell>
        <mxCell id="BUxdm4yUOxi0sFAAeVJM-73" value="" style="endArrow=none;html=1;rounded=0;exitX=1;exitY=0.5;exitDx=0;exitDy=0;" edge="1" parent="1" source="BUxdm4yUOxi0sFAAeVJM-72">
          <mxGeometry width="50" height="50" relative="1" as="geometry">
            <mxPoint x="2510" y="4720" as="sourcePoint" />
            <mxPoint x="2600" y="4800" as="targetPoint" />
          </mxGeometry>
        </mxCell>
      </root>
    </mxGraphModel>
  </diagram>
</mxfile>
